<?xml version="1.0" encoding="UTF-8"?>
<svg xmlns="http://www.w3.org/2000/svg" version="1.1" viewBox="0 0 500 500">
  <defs>
    <style>
      .cls-1 {
        fill: none;
        stroke: #e37eb3;
        stroke-width: 32px;
      }

      .cls-1, .cls-2 {
        stroke-miterlimit: 10;
      }

      .cls-2 {
        fill: #fff;
        stroke: #000;
      }
    </style>
  </defs>
  <!-- Generator: Adobe Illustrator 28.7.1, SVG Export Plug-In . SVG Version: 1.2.0 Build 142)  -->
  <g>
    <g id="Layer_2">
      <rect class="cls-2" width="500" height="500"/>
    </g>
    <g id="Layer_1">
      <g id="Layer_3">
        <path class="cls-1" d="M86.5,180.1c41.3-26.7,75.7-32.9,99.7-33.6,50.6-1.4,74.7,21.4,131,23.1,40.3,1.3,73.6-9,95.5-17.9"/>
        <path class="cls-1" d="M87.3,266.9c41.3-26.7,75.7-32.9,99.7-33.6,50.6-1.4,74.7,21.4,131,23.1,40.3,1.3,73.6-9,95.5-17.9"/>
        <path class="cls-1" d="M87.3,353.7c41.3-26.7,75.7-32.9,99.7-33.6,50.6-1.4,74.7,21.4,131,23.1,40.3,1.3,73.6-9,95.5-17.9"/>
        <rect class="cls-1" x="87" y="87" width="326.1" height="326.1" rx="30.5" ry="30.5"/>
        <path class="cls-1" d="M232.8,86.9c26.6,41.3,32.9,75.7,33.5,99.7,1.4,50.6-21.4,74.7-23.2,131-1.3,40.3,8.9,73.6,17.8,95.5"/>
        <path class="cls-1" d="M298.2,87c26.6,41.3,32.9,75.7,33.5,99.7,1.4,50.6-21.4,74.6-23.2,131-1.3,40.3,9,73.6,17.8,95.5"/>
        <path class="cls-1" d="M165.6,87c26.6,41.3,32.9,75.7,33.5,99.7,1.4,50.6-21.4,74.6-23.2,131-1.3,40.3,8.9,73.6,17.8,95.5"/>
      </g>
    </g>
  </g>
</svg>